<svg width="20" height="20" viewBox="0 0 20 20" fill="none" xmlns="http://www.w3.org/2000/svg">
<g clip-path="url(#clip0_3947_1078)">
<path d="M16.6667 8.33335C16.6667 13.3334 9.99999 18.3334 9.99999 18.3334C9.99999 18.3334 3.33333 13.3334 3.33333 8.33335C3.33333 6.56524 4.03571 4.86955 5.28595 3.61931C6.53619 2.36907 8.23188 1.66669 9.99999 1.66669C11.7681 1.66669 13.4638 2.36907 14.714 3.61931C15.9643 4.86955 16.6667 6.56524 16.6667 8.33335Z" stroke="#1D4ED8" stroke-width="1.66667" stroke-linecap="round" stroke-linejoin="round"/>
<path d="M10 10.8333C11.3807 10.8333 12.5 9.71402 12.5 8.33331C12.5 6.9526 11.3807 5.83331 10 5.83331C8.61929 5.83331 7.5 6.9526 7.5 8.33331C7.5 9.71402 8.61929 10.8333 10 10.8333Z" stroke="#1D4ED8" stroke-width="1.66667" stroke-linecap="round" stroke-linejoin="round"/>
</g>
<defs>
<clipPath id="clip0_3947_1078">
<rect width="20" height="20" fill="white"/>
</clipPath>
</defs>
</svg>
