<svg width="20" height="20" viewBox="0 0 20 20" fill="none" xmlns="http://www.w3.org/2000/svg">
<g clip-path="url(#clip0_3947_107)">
<path d="M16.6667 10.8334C16.6667 15 13.75 17.0834 10.2833 18.2917C10.1018 18.3532 9.90461 18.3503 9.72499 18.2834C6.24999 17.0834 3.33333 15 3.33333 10.8334V5.00003C3.33333 4.77902 3.42113 4.56705 3.57741 4.41077C3.73369 4.25449 3.94565 4.1667 4.16666 4.1667C5.83333 4.1667 7.91666 3.1667 9.36666 1.90003C9.54321 1.74919 9.76779 1.66632 9.99999 1.66632C10.2322 1.66632 10.4568 1.74919 10.6333 1.90003C12.0917 3.17503 14.1667 4.1667 15.8333 4.1667C16.0543 4.1667 16.2663 4.25449 16.4226 4.41077C16.5789 4.56705 16.6667 4.77902 16.6667 5.00003V10.8334Z" stroke="#4B5563" stroke-width="1.66667" stroke-linecap="round" stroke-linejoin="round"/>
</g>
<defs>
<clipPath id="clip0_3947_107">
<rect width="20" height="20" fill="white"/>
</clipPath>
</defs>
</svg>
