<svg width="20" height="20" viewBox="0 0 20 20" fill="none" xmlns="http://www.w3.org/2000/svg">
<g clip-path="url(#clip0_3947_320)">
<path d="M18.1083 15L11.4417 3.33332C11.2963 3.07682 11.0855 2.86347 10.8308 2.71504C10.576 2.56661 10.2865 2.4884 9.99167 2.4884C9.69685 2.4884 9.4073 2.56661 9.15257 2.71504C8.89783 2.86347 8.68703 3.07682 8.54167 3.33332L1.875 15C1.72807 15.2544 1.65103 15.5432 1.65168 15.8371C1.65233 16.1309 1.73065 16.4194 1.87871 16.6732C2.02676 16.927 2.23929 17.1371 2.49475 17.2823C2.7502 17.4275 3.03951 17.5026 3.33334 17.5H16.6667C16.9591 17.4997 17.2463 17.4225 17.4994 17.2761C17.7525 17.1297 17.9627 16.9192 18.1088 16.6659C18.2548 16.4126 18.3317 16.1253 18.3316 15.8329C18.3316 15.5405 18.2545 15.2532 18.1083 15Z" stroke="#4B5563" stroke-width="1.66667" stroke-linecap="round" stroke-linejoin="round"/>
<path d="M10 7.5V10.8333" stroke="#4B5563" stroke-width="1.66667" stroke-linecap="round" stroke-linejoin="round"/>
<path d="M10 14.1667H10.0083" stroke="#4B5563" stroke-width="1.66667" stroke-linecap="round" stroke-linejoin="round"/>
</g>
<defs>
<clipPath id="clip0_3947_320">
<rect width="20" height="20" fill="white"/>
</clipPath>
</defs>
</svg>
