<svg width="16" height="16" viewBox="0 0 16 16" fill="none" xmlns="http://www.w3.org/2000/svg">
<path d="M5.3335 4V8" stroke="#9CA3AF" stroke-width="1.33333" stroke-linecap="round" stroke-linejoin="round"/>
<path d="M10 4V8" stroke="#9CA3AF" stroke-width="1.33333" stroke-linecap="round" stroke-linejoin="round"/>
<path d="M1.3335 8H14.4002" stroke="#9CA3AF" stroke-width="1.33333" stroke-linecap="round" stroke-linejoin="round"/>
<path d="M12.0002 12H14.0002C14.0002 12 14.3335 10.8667 14.5335 10.1333C14.6002 9.86667 14.6668 9.6 14.6668 9.33333C14.6668 9.06667 14.6002 8.8 14.5335 8.53333L13.6002 5.2C13.4002 4.53333 12.7335 4 12.0002 4H2.66683C2.31321 4 1.97407 4.14048 1.72402 4.39052C1.47397 4.64057 1.3335 4.97971 1.3335 5.33333V12H3.3335" stroke="#9CA3AF" stroke-width="1.33333" stroke-linecap="round" stroke-linejoin="round"/>
<path d="M4.66683 13.3334C5.40321 13.3334 6.00016 12.7365 6.00016 12.0001C6.00016 11.2637 5.40321 10.6667 4.66683 10.6667C3.93045 10.6667 3.3335 11.2637 3.3335 12.0001C3.3335 12.7365 3.93045 13.3334 4.66683 13.3334Z" stroke="#9CA3AF" stroke-width="1.33333" stroke-linecap="round" stroke-linejoin="round"/>
<path d="M6 12H9.33333" stroke="#9CA3AF" stroke-width="1.33333" stroke-linecap="round" stroke-linejoin="round"/>
<path d="M10.6668 13.3334C11.4032 13.3334 12.0002 12.7365 12.0002 12.0001C12.0002 11.2637 11.4032 10.6667 10.6668 10.6667C9.93045 10.6667 9.3335 11.2637 9.3335 12.0001C9.3335 12.7365 9.93045 13.3334 10.6668 13.3334Z" stroke="#9CA3AF" stroke-width="1.33333" stroke-linecap="round" stroke-linejoin="round"/>
</svg>
