<svg width="20" height="20" viewBox="0 0 20 20" fill="none" xmlns="http://www.w3.org/2000/svg">
<g clip-path="url(#clip0_3947_34)">
<path d="M5 18.3333C6.38071 18.3333 7.5 17.214 7.5 15.8333C7.5 14.4526 6.38071 13.3333 5 13.3333C3.61929 13.3333 2.5 14.4526 2.5 15.8333C2.5 17.214 3.61929 18.3333 5 18.3333Z" stroke="#4B5563" stroke-width="1.66667" stroke-linecap="round" stroke-linejoin="round"/>
<path d="M7.5 15.8334H14.5833C15.3569 15.8334 16.0987 15.5261 16.6457 14.9791C17.1927 14.4321 17.5 13.6902 17.5 12.9167C17.5 12.1431 17.1927 11.4013 16.6457 10.8543C16.0987 10.3073 15.3569 10 14.5833 10H5.41667C4.64312 10 3.90125 9.69273 3.35427 9.14575C2.80729 8.59877 2.5 7.8569 2.5 7.08335C2.5 6.30981 2.80729 5.56794 3.35427 5.02096C3.90125 4.47398 4.64312 4.16669 5.41667 4.16669H12.5" stroke="#4B5563" stroke-width="1.66667" stroke-linecap="round" stroke-linejoin="round"/>
<path d="M15 6.66669C16.3807 6.66669 17.5 5.5474 17.5 4.16669C17.5 2.78598 16.3807 1.66669 15 1.66669C13.6193 1.66669 12.5 2.78598 12.5 4.16669C12.5 5.5474 13.6193 6.66669 15 6.66669Z" stroke="#4B5563" stroke-width="1.66667" stroke-linecap="round" stroke-linejoin="round"/>
</g>
<defs>
<clipPath id="clip0_3947_34">
<rect width="20" height="20" fill="white"/>
</clipPath>
</defs>
</svg>
